<?xml version="1.0" encoding="UTF-8" ?>
<!DOCTYPE svg PUBLIC "-//W3C//DTD SVG 1.1//EN" "http://www.w3.org/Graphics/SVG/1.1/DTD/svg11.dtd">
<svg width="1139pt" height="1010pt" viewBox="0 0 1139 1010" version="1.1" xmlns="http://www.w3.org/2000/svg">
<g id="#9b4431ff">
<path fill="#9b4431" opacity="1.00" d=" M 0.00 0.00 L 0.19 0.00 C 0.14 0.03 0.05 0.10 0.00 0.13 L 0.00 0.00 Z" />
<path fill="#9b4431" opacity="1.00" d=" M 633.18 299.30 C 643.98 298.68 654.84 299.09 665.64 299.70 C 673.74 306.87 681.92 314.59 686.43 324.62 C 688.11 328.80 690.10 333.63 688.03 338.04 C 685.19 345.12 678.01 349.01 671.12 351.25 C 668.08 352.25 664.92 352.78 661.85 353.60 C 664.43 346.32 663.36 338.57 663.33 331.03 C 663.11 321.21 663.64 311.40 663.47 301.58 C 653.43 300.41 643.32 301.01 633.26 301.15 C 633.24 300.68 633.20 299.76 633.18 299.30 Z" />
<path fill="#9b4431" opacity="1.00" d=" M 572.37 623.48 C 579.43 622.68 587.27 628.47 587.53 635.76 C 587.49 642.78 580.57 646.45 574.94 648.79 C 568.72 648.40 562.26 644.20 560.59 637.95 C 559.05 630.79 565.54 624.18 572.37 623.48 Z" />
<path fill="#9b4431" opacity="1.00" d=" M 574.27 692.48 C 582.00 693.29 590.29 701.58 586.59 709.68 C 583.11 717.81 571.58 718.99 565.10 713.92 C 561.99 708.97 562.77 702.72 564.33 697.37 C 567.53 695.55 570.66 693.40 574.27 692.48 Z" />
<path fill="#9b4431" opacity="1.00" d=" M 569.52 769.96 C 573.31 769.58 577.18 769.65 580.97 770.10 C 584.05 773.74 587.30 778.09 587.34 783.07 C 585.99 787.67 582.78 792.26 578.03 793.74 C 573.51 794.59 567.92 793.85 565.25 789.64 C 561.15 783.54 562.37 773.20 569.52 769.96 Z" />
<path fill="#9b4431" opacity="1.00" d=" M 569.34 840.55 C 576.59 837.70 585.74 842.30 587.31 850.02 C 588.38 854.91 585.02 859.45 580.99 861.84 C 578.59 863.15 575.95 865.31 573.06 864.21 C 568.18 863.15 563.19 859.46 563.01 854.09 C 562.43 849.04 563.72 842.15 569.34 840.55 Z" />
<path fill="#9b4431" opacity="1.00" d=" M 570.30 907.36 C 577.01 904.96 584.80 909.44 586.89 916.07 C 588.58 920.37 585.71 924.84 582.97 928.01 C 579.65 931.91 573.85 932.38 569.35 930.50 C 560.61 926.11 560.48 910.53 570.30 907.36 Z" />
</g>
<g id="#404751ff">
<path fill="#404751" opacity="1.00" d=" M 280.59 74.60 C 346.70 40.73 420.78 22.67 495.05 22.03 C 586.78 20.86 678.65 46.61 756.28 95.52 C 754.78 116.99 755.35 138.52 755.42 160.02 C 755.46 202.01 755.13 244.01 755.54 286.01 C 755.50 299.58 761.58 311.98 767.48 323.84 C 750.93 334.03 735.27 345.57 718.72 355.74 C 715.55 357.87 712.46 360.96 712.46 365.05 C 710.98 372.22 718.94 379.93 725.96 376.95 C 746.28 366.92 763.38 351.35 784.16 342.17 C 790.03 344.58 795.37 348.03 800.88 351.15 C 810.61 356.61 821.95 358.32 832.98 358.52 C 875.45 358.63 917.92 358.50 960.39 358.51 C 993.09 461.00 990.26 574.44 952.20 675.09 C 929.86 734.53 895.56 789.42 852.05 835.67 C 852.41 816.91 853.82 797.64 848.42 779.39 C 847.04 774.24 844.34 769.61 842.52 764.63 C 837.75 751.55 830.14 739.80 822.90 728.00 C 806.51 701.74 791.22 674.81 774.27 648.90 C 768.38 640.67 767.44 630.28 763.63 621.13 C 751.45 593.84 730.58 569.27 702.69 557.35 C 694.58 553.98 686.82 549.43 678.02 548.08 C 658.66 544.65 638.72 543.59 619.19 546.18 C 616.24 542.51 613.48 538.72 610.76 534.89 C 611.36 525.69 610.98 516.45 611.19 507.24 C 618.11 502.60 624.99 497.86 631.12 492.19 C 639.44 484.86 645.29 475.28 650.63 465.69 C 659.11 449.73 664.76 431.37 662.12 413.18 C 666.97 407.03 673.73 402.33 677.08 395.05 C 681.57 385.47 684.61 374.23 681.28 363.82 C 679.63 358.45 674.88 355.07 671.12 351.25 C 678.01 349.01 685.19 345.12 688.03 338.04 C 690.10 333.63 688.11 328.80 686.43 324.62 C 681.92 314.59 673.74 306.87 665.64 299.70 C 665.55 280.46 667.84 260.98 664.18 241.92 C 657.59 210.86 636.70 183.26 608.64 168.41 C 601.10 164.55 593.28 160.97 584.97 159.12 C 578.13 157.40 570.81 157.24 564.33 154.34 C 565.98 150.42 568.63 146.14 567.22 141.75 C 563.83 134.92 552.80 133.90 548.87 140.80 C 544.34 146.14 550.20 151.94 552.34 156.90 C 550.08 156.88 547.83 156.83 545.58 156.87 C 533.09 157.10 521.23 161.51 510.24 167.15 C 487.02 177.52 469.19 197.67 458.41 220.40 C 454.92 228.61 450.92 236.93 450.46 245.99 C 450.15 250.83 450.53 255.68 450.17 260.52 C 449.15 273.89 450.52 287.34 449.20 300.69 C 441.54 305.65 433.88 311.10 428.51 318.60 C 425.95 322.14 426.34 327.44 429.62 330.41 C 435.85 337.00 445.42 337.60 453.80 339.20 C 452.24 362.11 453.29 385.09 453.16 408.03 C 452.42 421.66 453.11 435.58 457.42 448.63 C 453.95 456.32 447.17 461.56 441.48 467.52 C 434.78 474.24 428.08 481.62 419.06 485.18 C 417.23 472.21 418.53 459.03 417.07 446.02 C 405.32 443.12 393.10 443.65 381.12 444.43 C 377.49 444.60 373.20 446.89 373.23 451.00 C 372.33 462.97 372.98 474.99 372.84 486.99 C 372.31 494.73 379.52 501.14 386.85 501.75 C 401.12 503.00 416.38 502.46 429.09 495.12 C 442.51 487.66 451.17 474.42 463.25 465.26 C 464.14 466.15 465.05 467.04 465.92 467.98 C 474.87 483.73 488.14 496.89 503.45 506.50 C 510.13 510.58 517.12 514.40 524.78 516.26 C 530.92 517.94 537.28 518.70 543.33 520.73 C 543.22 523.84 543.31 526.94 543.23 530.05 C 541.31 535.73 538.99 541.43 534.79 545.84 C 517.06 544.36 498.86 547.89 482.91 555.80 C 449.15 569.89 423.76 600.94 414.04 635.91 C 412.20 642.45 410.76 649.17 410.79 656.00 C 410.76 668.30 411.62 680.80 408.70 692.88 C 395.90 710.34 385.14 729.15 373.18 747.17 C 368.77 753.91 364.90 761.36 358.39 766.35 C 347.95 773.51 333.58 774.41 322.29 768.74 C 317.08 766.21 313.35 761.66 309.29 757.70 C 273.54 722.03 237.90 686.24 202.13 650.59 C 200.40 652.06 198.65 653.51 196.81 654.86 C 196.30 654.86 195.28 654.87 194.77 654.87 C 192.24 653.25 190.16 650.96 187.72 649.18 C 184.86 646.76 186.90 642.92 187.44 639.94 C 190.48 626.67 190.46 611.37 181.97 600.02 C 172.97 588.09 159.83 577.33 144.17 577.29 C 143.95 574.89 143.57 572.53 143.23 570.15 C 135.06 570.58 126.78 570.83 118.81 572.89 C 118.90 575.85 119.32 578.80 120.08 581.67 C 108.80 588.55 97.92 598.12 94.41 611.36 C 91.74 623.07 91.81 635.95 97.19 646.91 C 103.42 658.34 113.67 667.97 126.25 671.88 C 137.32 675.14 149.10 673.67 160.17 671.23 C 163.39 674.37 166.53 677.60 169.76 680.73 C 168.06 682.70 166.44 684.75 164.99 686.92 C 184.37 707.54 204.89 727.06 224.75 747.22 C 239.92 762.39 255.08 777.56 270.23 792.75 C 277.08 799.61 283.77 806.80 291.93 812.16 C 318.31 829.36 354.10 829.92 381.36 814.36 C 386.79 811.33 391.67 807.42 396.41 803.43 C 403.23 797.32 408.02 789.40 413.97 782.51 C 426.91 782.71 439.85 782.35 452.80 782.73 C 453.39 850.38 452.35 918.05 453.47 985.69 C 392.85 980.16 333.41 962.56 279.30 934.74 C 215.83 902.12 159.79 855.21 116.42 798.55 C 70.74 739.07 39.21 668.79 25.39 595.06 C 14.78 538.77 14.24 480.60 23.75 424.12 C 35.98 351.04 65.55 280.98 109.19 221.13 C 153.79 159.75 213.00 109.07 280.59 74.60 M 328.49 242.59 C 321.87 244.38 315.72 248.03 311.08 253.10 C 307.22 257.12 305.15 262.46 303.75 267.77 C 301.60 276.33 303.71 285.50 308.08 293.02 C 311.25 298.70 317.90 301.38 320.81 307.25 C 322.22 310.48 322.98 314.04 325.11 316.94 C 328.48 322.17 334.75 325.51 341.02 324.76 C 347.57 324.92 351.80 319.12 355.69 314.69 C 360.81 309.17 356.99 300.51 361.75 294.85 C 366.31 288.91 368.65 281.38 368.56 273.93 C 367.81 265.63 364.98 257.09 358.72 251.30 C 350.86 243.75 339.17 240.27 328.49 242.59 M 385.45 318.63 C 373.18 320.51 364.07 332.65 364.19 344.79 C 364.62 350.54 367.17 355.81 368.79 361.27 C 370.58 366.25 371.75 371.67 375.10 375.90 C 380.78 381.58 390.22 383.38 397.29 379.22 C 403.13 376.31 405.04 369.67 408.75 364.80 C 413.05 358.61 418.02 351.87 417.68 343.96 C 416.81 335.33 412.55 326.61 405.00 321.96 C 399.01 318.97 392.14 316.86 385.45 318.63 M 365.39 386.48 C 359.19 387.83 355.22 394.12 354.44 400.09 C 353.85 405.83 357.87 410.62 362.29 413.70 C 370.68 418.36 384.00 412.22 383.59 401.97 C 384.57 392.61 374.56 383.76 365.39 386.48 M 379.42 418.48 C 374.40 420.41 373.25 428.13 377.87 431.15 C 382.83 434.76 389.21 428.31 388.91 423.20 C 386.75 420.27 383.18 417.98 379.42 418.48 M 109.37 446.57 C 83.13 451.05 63.36 475.95 61.45 501.96 C 60.89 514.42 65.59 526.58 72.08 537.01 C 78.55 546.82 87.99 555.01 99.31 558.57 C 108.27 561.76 117.96 564.23 127.49 562.44 C 134.30 561.12 141.18 559.53 147.31 556.17 C 163.70 547.77 175.70 531.33 178.68 513.15 C 181.11 499.74 177.82 485.68 170.94 474.04 C 158.76 453.34 132.96 441.70 109.37 446.57 Z" />
<path fill="#404751" opacity="1.00" d=" M 772.74 748.87 C 778.99 756.32 784.01 764.78 788.66 773.32 C 795.92 786.93 800.37 802.43 799.03 817.96 C 799.00 840.06 798.71 862.18 799.15 884.28 C 777.15 901.56 753.71 917.00 729.12 930.34 C 728.97 890.91 729.02 851.47 729.02 812.04 C 728.85 801.87 727.70 791.43 730.95 781.58 C 744.02 781.78 757.15 782.11 770.21 781.43 C 770.62 781.24 771.43 780.87 771.84 780.68 C 773.67 770.16 771.51 759.41 772.74 748.87 Z" />
</g>
<g id="#e8e8e8ff">
<path fill="#e8e8e8" opacity="1.00" d=" M 794.06 41.17 C 804.21 35.64 815.29 31.03 827.01 30.70 C 900.67 30.65 974.33 30.71 1047.99 30.67 C 1064.86 30.79 1081.15 37.48 1094.61 47.40 C 1102.97 53.30 1109.61 61.37 1114.89 70.07 C 1119.31 77.25 1120.08 85.79 1120.98 93.98 C 1122.62 110.25 1122.01 126.63 1121.87 142.95 C 1121.87 184.29 1121.88 225.62 1121.87 266.95 C 1121.60 277.61 1122.51 288.43 1120.20 298.93 C 1116.83 313.81 1108.12 326.88 1097.60 337.69 C 1086.72 347.00 1073.71 353.87 1059.82 357.36 C 1057.94 357.85 1056.02 358.34 1054.08 358.26 C 1022.84 358.02 991.62 358.50 960.39 358.51 C 917.92 358.50 875.45 358.63 832.98 358.52 C 821.95 358.32 810.61 356.61 800.88 351.15 C 795.37 348.03 790.03 344.58 784.16 342.17 C 763.38 351.35 746.28 366.92 725.96 376.95 C 718.94 379.93 710.98 372.22 712.46 365.05 C 712.46 360.96 715.55 357.87 718.72 355.74 C 735.27 345.57 750.93 334.03 767.48 323.84 C 761.58 311.98 755.50 299.58 755.54 286.01 C 755.13 244.01 755.46 202.01 755.42 160.02 C 755.35 138.52 754.78 116.99 756.28 95.52 C 756.37 91.57 757.96 87.89 759.13 84.17 C 765.36 66.49 777.00 49.79 794.06 41.17 M 872.09 90.40 C 871.85 93.22 876.37 92.04 876.30 95.02 C 877.12 106.32 876.44 117.71 876.67 129.04 C 876.41 131.09 877.06 133.81 875.19 135.24 C 874.37 136.05 871.53 136.30 872.97 137.95 C 877.32 138.05 881.69 138.05 886.06 137.94 C 887.35 135.71 883.11 135.98 882.79 133.94 C 882.14 128.69 882.68 123.35 882.48 118.07 C 881.73 112.57 888.74 107.21 893.65 110.42 C 896.26 112.82 895.86 116.75 896.01 119.97 C 895.84 124.55 896.34 129.19 895.71 133.73 C 895.36 135.84 892.21 135.56 892.06 137.71 C 896.67 138.24 901.36 138.06 905.99 137.81 C 906.06 135.47 902.66 136.03 902.24 133.90 C 901.21 126.66 902.43 119.30 901.51 112.06 C 901.05 108.38 897.82 105.39 894.08 105.39 C 889.36 104.70 885.52 108.03 882.48 111.16 C 882.54 104.10 882.43 97.04 882.55 89.98 C 879.05 89.85 875.57 90.15 872.09 90.40 M 1007.40 89.91 C 1008.45 94.94 1008.33 100.55 1004.83 104.64 C 1005.34 105.14 1006.36 106.14 1006.87 106.64 C 1008.90 104.74 1011.07 102.90 1012.58 100.53 C 1014.57 97.53 1014.45 93.61 1013.45 90.29 C 1011.67 89.37 1009.34 90.14 1007.40 89.91 M 831.67 92.17 C 831.65 96.05 831.66 99.94 831.66 103.83 C 832.50 103.83 834.18 103.83 835.02 103.83 C 835.94 101.04 836.41 97.65 839.03 95.88 C 841.39 94.72 844.13 95.34 846.66 95.22 C 846.67 106.49 846.66 117.75 846.67 129.02 C 846.53 131.07 846.86 133.59 845.13 135.10 C 843.95 136.02 841.60 135.88 841.99 137.92 C 847.06 138.01 852.14 138.12 857.21 137.90 L 857.96 136.80 C 855.82 135.98 853.09 134.89 853.13 132.15 C 852.83 119.85 853.08 107.52 853.01 95.21 C 855.39 95.34 857.95 94.79 860.24 95.69 C 863.12 97.31 863.71 100.92 864.63 103.81 C 865.74 103.82 866.85 103.83 867.98 103.86 C 868.01 99.96 868.00 96.06 867.99 92.16 C 855.88 92.17 843.78 92.16 831.67 92.17 M 914.36 111.38 C 910.78 117.13 910.76 124.61 912.94 130.86 C 914.75 136.22 920.60 138.97 925.99 138.53 C 930.79 138.63 934.81 135.69 938.14 132.55 C 937.54 131.68 936.88 130.84 936.18 130.06 C 932.66 133.86 926.65 135.98 921.92 133.16 C 918.07 130.71 917.72 125.63 917.65 121.51 C 924.71 121.49 931.77 121.50 938.83 121.51 C 938.68 116.49 938.11 110.49 933.64 107.33 C 927.53 103.43 918.26 105.12 914.36 111.38 M 961.04 106.04 C 958.11 107.11 956.04 109.55 953.97 111.74 C 954.04 109.65 954.11 107.56 954.23 105.47 C 950.92 105.84 947.42 105.34 944.24 106.27 C 943.55 108.72 947.86 107.64 948.10 110.03 C 948.78 116.33 948.21 122.72 948.42 129.05 C 948.22 131.04 948.83 133.65 947.14 135.12 C 946.33 136.00 943.66 136.30 944.93 137.95 C 949.28 138.01 953.66 138.11 958.02 137.90 L 958.79 136.89 C 957.32 135.90 954.90 135.63 954.55 133.57 C 953.82 128.73 954.37 123.81 954.19 118.94 C 953.74 114.83 956.72 110.26 960.97 109.79 C 963.09 109.70 964.13 111.68 965.04 113.26 C 966.29 113.32 967.54 113.33 968.82 113.37 C 968.83 110.73 968.83 108.09 968.83 105.45 C 966.22 105.32 963.50 105.00 961.04 106.04 M 976.15 110.14 C 971.64 115.94 971.51 124.20 973.85 130.91 C 975.68 136.25 981.54 138.98 986.92 138.53 C 991.75 138.65 995.73 135.64 999.09 132.52 C 998.44 131.66 997.75 130.84 997.04 130.06 C 993.53 133.88 987.50 135.98 982.78 133.15 C 978.96 130.67 978.59 125.63 978.55 121.51 C 985.61 121.48 992.67 121.52 999.74 121.49 C 999.55 116.29 998.90 109.94 993.97 106.97 C 988.29 103.86 980.30 105.01 976.15 110.14 M 1025.95 106.95 C 1021.50 108.96 1019.87 115.35 1023.13 119.08 C 1026.59 123.04 1032.25 123.59 1036.30 126.70 C 1039.22 129.00 1038.37 134.58 1034.56 135.42 C 1030.10 137.06 1025.04 134.61 1023.97 129.92 C 1023.18 129.91 1021.59 129.91 1020.80 129.90 C 1020.78 132.29 1020.78 134.67 1020.80 137.06 C 1026.50 138.46 1032.70 139.40 1038.39 137.43 C 1043.91 135.62 1045.65 127.49 1041.54 123.50 C 1037.92 120.02 1032.61 119.32 1028.73 116.27 C 1026.06 114.15 1026.92 109.31 1030.30 108.44 C 1034.40 106.84 1039.01 109.11 1040.23 113.33 C 1041.00 113.33 1042.56 113.33 1043.33 113.33 C 1043.29 111.06 1043.32 108.79 1043.45 106.53 C 1037.78 105.09 1031.39 104.41 1025.95 106.95 M 930.30 172.74 C 930.02 173.06 929.47 173.72 929.19 174.04 C 931.05 174.81 933.77 175.46 933.75 178.00 C 934.12 188.64 933.78 199.30 933.91 209.95 C 933.83 212.11 934.12 214.36 933.47 216.45 C 932.83 218.34 929.78 217.93 929.92 220.28 C 934.44 220.39 938.95 220.31 943.48 220.34 C 943.48 219.97 943.49 219.23 943.50 218.85 C 941.81 218.17 939.73 217.15 939.85 215.00 C 939.54 210.03 939.76 205.04 939.71 200.06 C 939.40 194.89 945.71 189.95 950.54 192.56 C 953.25 194.41 953.11 198.08 953.35 201.00 C 953.31 205.97 953.73 210.99 953.05 215.92 C 952.99 218.30 949.03 217.79 949.58 220.32 C 954.08 220.34 958.58 220.35 963.08 220.32 C 963.63 217.67 959.56 218.49 959.47 216.01 C 958.61 208.72 959.92 201.28 958.71 194.02 C 958.10 190.38 954.70 187.66 951.03 187.77 C 946.38 187.23 942.75 190.58 939.71 193.58 C 939.70 186.52 939.71 179.46 939.70 172.39 C 936.56 172.45 933.41 172.31 930.30 172.74 M 972.01 175.16 C 971.99 177.35 971.99 179.53 972.02 181.72 C 974.07 181.71 976.13 181.70 978.21 181.69 C 978.21 179.51 978.20 177.34 978.20 175.16 C 976.12 175.16 974.06 175.16 972.01 175.16 M 911.44 180.01 C 910.93 182.79 910.97 185.91 909.13 188.23 C 908.03 189.69 904.89 189.34 905.28 191.67 C 906.98 191.69 908.67 191.70 910.39 191.73 C 910.45 198.46 910.31 205.19 910.45 211.92 C 910.52 215.49 912.12 219.74 916.02 220.57 C 920.45 222.01 924.85 219.65 927.99 216.66 C 927.64 216.16 926.96 215.18 926.62 214.68 C 924.55 216.12 921.95 217.61 919.40 216.43 C 916.93 215.32 916.47 212.40 916.34 209.99 C 916.06 203.90 916.26 197.80 916.22 191.70 C 919.85 191.70 923.48 191.72 927.12 191.69 C 927.11 190.84 927.08 189.14 927.07 188.29 C 923.45 188.30 919.83 188.29 916.22 188.29 C 916.21 185.53 916.20 182.76 916.20 180.00 C 914.59 180.00 913.01 180.01 911.44 180.01 M 832.16 188.35 C 831.61 191.26 836.18 190.08 836.13 192.97 C 836.44 200.29 836.34 207.65 836.18 214.98 C 836.70 217.97 832.28 217.67 832.57 220.32 C 837.07 220.33 841.57 220.39 846.08 220.28 C 846.20 217.74 842.54 218.35 842.42 215.92 C 841.79 210.62 842.19 205.24 842.11 199.91 C 841.90 196.55 844.57 193.90 847.29 192.39 C 849.99 191.03 853.84 192.01 854.91 195.03 C 856.42 200.19 855.55 205.66 855.81 210.96 C 855.63 213.14 856.23 215.84 854.52 217.55 C 853.36 218.23 851.86 218.62 851.92 220.28 C 856.43 220.39 860.95 220.31 865.47 220.34 C 865.48 219.96 865.50 219.21 865.51 218.83 C 864.11 218.20 862.19 217.69 861.87 215.94 C 861.12 209.01 862.06 202.00 861.35 195.07 C 860.98 191.29 857.93 187.80 853.97 187.81 C 849.04 187.04 845.11 190.61 841.86 193.77 C 841.95 191.84 842.06 189.92 842.16 187.99 C 838.82 187.95 835.48 188.11 832.16 188.35 M 880.46 188.64 C 874.91 190.51 871.77 196.33 871.40 201.91 C 870.99 207.28 871.49 213.44 875.53 217.44 C 880.05 221.63 887.18 221.80 892.67 219.57 C 897.91 217.34 900.47 211.49 900.67 206.08 C 901.02 200.76 900.31 194.68 896.13 190.90 C 891.87 187.29 885.58 187.00 880.46 188.64 M 968.08 188.32 C 967.42 191.26 972.15 190.08 972.02 193.05 C 972.28 200.38 972.22 207.74 972.05 215.07 C 972.15 217.20 970.14 218.17 968.49 218.86 C 968.50 219.23 968.52 219.97 968.53 220.33 C 972.85 220.31 977.18 220.37 981.51 220.34 C 981.65 219.98 981.91 219.26 982.04 218.90 C 980.21 218.26 977.99 217.32 978.16 214.99 C 978.00 205.99 978.15 196.99 978.09 187.99 C 974.74 187.95 971.41 188.13 968.08 188.32 M 987.03 188.35 C 986.53 191.28 991.26 190.02 991.10 193.05 C 991.56 198.00 991.16 202.99 991.29 207.96 C 991.18 210.89 991.68 213.97 990.66 216.80 C 989.96 218.34 986.96 218.08 987.60 220.33 C 992.09 220.32 996.59 220.39 1001.09 220.27 C 1001.15 217.79 997.67 218.34 997.39 216.00 C 996.78 210.67 997.22 205.28 997.10 199.93 C 996.90 196.02 1000.38 192.70 1003.97 191.89 C 1007.20 191.12 1010.28 193.87 1010.40 197.07 C 1010.98 203.23 1010.99 209.50 1010.51 215.67 C 1010.53 218.20 1006.76 217.77 1006.97 220.30 C 1011.44 220.37 1015.91 220.33 1020.39 220.33 C 1021.06 217.69 1016.91 218.41 1016.83 215.96 C 1016.07 208.82 1017.21 201.57 1016.20 194.45 C 1015.70 190.47 1011.97 187.44 1007.97 187.76 C 1003.39 187.45 999.92 190.88 996.83 193.76 C 996.93 191.84 996.99 189.91 997.13 187.99 C 993.75 187.95 990.39 188.13 987.03 188.35 M 1031.02 189.98 C 1025.05 194.20 1025.40 204.44 1031.49 208.41 C 1029.13 210.29 1026.40 212.74 1026.89 216.10 C 1026.88 218.07 1028.56 219.31 1029.91 220.49 C 1026.65 221.92 1023.95 225.30 1025.01 229.04 C 1026.23 233.78 1031.84 234.97 1036.06 235.23 C 1041.64 235.64 1048.03 235.44 1052.33 231.32 C 1056.08 227.76 1056.33 220.31 1051.56 217.51 C 1047.41 215.27 1042.48 216.19 1037.97 216.02 C 1035.97 215.85 1033.59 216.44 1032.01 214.91 C 1030.68 212.80 1032.40 210.69 1033.94 209.34 C 1038.46 210.42 1043.62 210.33 1047.63 207.72 C 1052.70 204.15 1053.08 196.34 1049.69 191.49 C 1051.81 191.58 1053.95 191.65 1056.09 191.73 C 1056.07 190.58 1056.07 189.44 1056.10 188.29 C 1051.39 188.17 1046.65 188.62 1041.98 187.91 C 1038.25 187.41 1034.18 187.79 1031.02 189.98 M 830.92 256.16 C 832.33 257.04 834.30 257.29 835.27 258.79 C 836.19 261.07 835.81 263.61 835.91 266.02 C 835.77 276.62 836.14 287.24 835.73 297.83 C 835.97 300.61 831.61 300.14 832.03 302.79 C 836.54 302.74 841.09 303.09 845.59 302.63 C 846.21 300.45 842.62 300.80 842.16 298.86 C 841.20 293.65 841.94 288.28 841.69 283.01 C 841.02 277.56 847.80 272.01 852.80 275.14 C 855.19 276.98 855.10 280.32 855.32 283.05 C 855.36 288.05 855.66 293.09 855.11 298.07 C 854.85 300.01 852.84 300.78 851.31 301.50 C 851.48 301.82 851.82 302.46 851.99 302.78 C 856.34 302.94 860.71 302.79 865.08 302.83 C 865.70 300.18 861.80 300.90 861.53 298.59 C 860.52 291.14 862.03 283.49 860.63 276.07 C 859.90 272.59 856.58 270.10 853.06 270.16 C 848.44 269.64 844.77 272.97 841.71 275.94 C 841.74 268.92 841.63 261.90 841.77 254.88 C 838.25 255.24 833.71 253.79 830.92 256.16 M 873.85 275.89 C 870.06 281.70 870.02 289.39 872.27 295.77 C 874.10 300.93 879.70 303.67 884.96 303.34 C 889.89 303.51 894.26 300.65 897.45 297.10 C 896.97 296.54 896.01 295.43 895.53 294.87 C 892.04 298.47 886.52 300.56 881.74 298.29 C 877.44 295.99 876.97 290.54 876.96 286.21 C 884.02 286.20 891.09 286.22 898.15 286.20 C 897.94 281.23 897.38 275.24 892.92 272.14 C 886.92 268.34 877.85 269.84 873.85 275.89 M 920.06 270.95 C 917.22 272.08 915.27 274.51 913.15 276.58 C 913.29 274.51 913.43 272.44 913.60 270.38 C 910.27 270.38 906.96 270.53 903.65 270.72 C 902.61 273.63 907.33 272.38 907.39 274.99 C 907.94 282.40 907.64 289.90 907.56 297.34 C 908.07 300.28 903.79 300.18 904.00 302.77 C 908.60 302.87 913.21 302.87 917.83 302.78 C 918.41 300.84 916.05 300.88 914.92 300.10 C 913.43 298.86 913.64 296.73 913.54 295.01 C 913.54 290.36 913.31 285.70 913.67 281.07 C 914.29 278.01 916.81 275.08 920.00 274.58 C 922.21 274.36 923.45 276.37 924.35 278.05 C 925.58 278.06 926.83 278.08 928.09 278.11 C 928.10 275.49 928.09 272.87 928.09 270.25 C 925.40 270.21 922.57 269.79 920.06 270.95 M 935.68 274.69 C 931.01 280.27 930.88 288.41 932.90 295.09 C 934.43 300.29 939.78 303.51 945.07 303.34 C 950.27 303.73 955.02 300.88 958.33 297.08 C 957.88 296.54 956.98 295.46 956.53 294.91 C 952.89 298.30 947.53 300.63 942.70 298.32 C 938.30 296.07 937.92 290.55 937.79 286.21 C 944.88 286.19 951.96 286.22 959.06 286.20 C 958.84 281.01 958.15 274.65 953.20 271.72 C 947.62 268.79 939.85 269.76 935.68 274.69 M 965.36 295.00 C 965.41 297.60 965.39 300.21 965.40 302.83 C 967.66 302.84 969.93 302.84 972.21 302.82 C 972.21 300.19 972.21 297.56 972.19 294.93 C 969.90 294.85 967.63 294.90 965.36 295.00 M 979.40 294.93 C 979.39 297.56 979.39 300.19 979.40 302.83 C 981.71 302.84 984.02 302.84 986.34 302.82 C 986.34 300.18 986.33 297.54 986.32 294.91 C 984.00 294.89 981.70 294.90 979.40 294.93 M 993.50 302.82 C 995.77 302.83 998.05 302.84 1000.34 302.82 C 1000.35 300.18 1000.33 297.55 1000.31 294.91 C 998.05 294.90 995.79 294.90 993.54 294.89 C 993.48 297.53 993.47 300.18 993.50 302.82 Z" />
<path fill="#e8e8e8" opacity="1.00" d=" M 920.51 110.53 C 922.69 107.57 927.79 106.98 930.16 110.01 C 931.97 112.49 932.18 115.68 932.47 118.64 C 927.58 118.69 922.70 118.66 917.82 118.66 C 918.18 115.83 918.60 112.80 920.51 110.53 Z" />
<path fill="#e8e8e8" opacity="1.00" d=" M 981.50 110.40 C 983.61 107.72 988.09 107.09 990.62 109.52 C 992.87 111.99 993.02 115.49 993.38 118.63 C 988.46 118.68 983.55 118.71 978.64 118.62 C 979.11 115.76 979.51 112.67 981.50 110.40 Z" />
<path fill="#e8e8e8" opacity="1.00" d=" M 1037.40 190.58 C 1041.19 189.24 1045.08 192.22 1045.49 196.03 C 1046.51 200.24 1045.34 206.86 1040.02 207.22 C 1031.47 207.90 1030.10 193.05 1037.40 190.58 Z" />
<path fill="#e8e8e8" opacity="1.00" d=" M 882.32 191.40 C 885.12 189.75 889.14 190.23 891.20 192.85 C 893.89 196.27 894.33 200.83 894.37 205.03 C 894.26 208.85 893.82 213.07 891.17 216.05 C 888.48 219.21 882.92 218.84 880.55 215.49 C 877.75 211.63 877.58 206.59 877.73 202.00 C 877.97 198.15 878.86 193.68 882.32 191.40 Z" />
<path fill="#e8e8e8" opacity="1.00" d=" M 1033.29 221.22 C 1037.47 220.97 1041.76 220.93 1045.94 221.37 C 1050.00 221.93 1050.61 227.61 1047.95 230.08 C 1045.31 232.64 1041.32 232.84 1037.88 232.60 C 1035.21 232.40 1032.08 231.76 1030.73 229.18 C 1029.45 226.29 1030.90 223.02 1033.29 221.22 Z" />
<path fill="#e8e8e8" opacity="1.00" d=" M 880.05 275.01 C 882.28 272.38 887.01 271.89 889.32 274.66 C 891.33 277.09 891.39 280.42 891.78 283.40 C 886.87 283.39 881.98 283.43 877.08 283.38 C 877.50 280.45 878.00 277.30 880.05 275.01 Z" />
<path fill="#e8e8e8" opacity="1.00" d=" M 940.97 274.99 C 943.07 272.52 947.23 272.00 949.74 274.14 C 952.16 276.55 952.32 280.21 952.61 283.42 C 947.73 283.37 942.85 283.45 937.97 283.36 C 938.37 280.42 938.91 277.28 940.97 274.99 Z" />
</g>
<g id="#343a46ff">
<path fill="#343a46" opacity="1.00" d=" M 872.09 90.40 C 875.57 90.15 879.05 89.85 882.55 89.98 C 882.43 97.04 882.54 104.10 882.48 111.16 C 885.52 108.03 889.36 104.70 894.08 105.39 C 897.82 105.39 901.05 108.38 901.51 112.06 C 902.43 119.30 901.21 126.66 902.24 133.90 C 902.66 136.03 906.06 135.47 905.99 137.81 C 901.36 138.06 896.67 138.24 892.06 137.71 C 892.21 135.56 895.36 135.84 895.71 133.73 C 896.34 129.19 895.84 124.55 896.01 119.97 C 895.86 116.75 896.26 112.82 893.65 110.42 C 888.74 107.21 881.73 112.57 882.48 118.07 C 882.68 123.35 882.14 128.69 882.79 133.94 C 883.11 135.98 887.35 135.71 886.06 137.94 C 881.69 138.05 877.32 138.05 872.97 137.95 C 871.53 136.30 874.37 136.05 875.19 135.24 C 877.06 133.81 876.41 131.09 876.67 129.04 C 876.44 117.71 877.12 106.32 876.30 95.02 C 876.37 92.04 871.85 93.22 872.09 90.40 Z" />
<path fill="#343a46" opacity="1.00" d=" M 1007.40 89.91 C 1009.34 90.14 1011.67 89.37 1013.45 90.29 C 1014.45 93.61 1014.57 97.53 1012.58 100.53 C 1011.07 102.90 1008.90 104.74 1006.87 106.64 C 1006.36 106.14 1005.34 105.14 1004.83 104.64 C 1008.33 100.55 1008.45 94.94 1007.40 89.91 Z" />
<path fill="#343a46" opacity="1.00" d=" M 831.67 92.17 C 843.78 92.16 855.88 92.17 867.99 92.16 C 868.00 96.06 868.01 99.96 867.98 103.86 C 866.85 103.83 865.74 103.82 864.63 103.81 C 863.71 100.92 863.12 97.31 860.24 95.69 C 857.95 94.79 855.39 95.34 853.01 95.21 C 853.08 107.52 852.83 119.85 853.13 132.15 C 853.09 134.89 855.82 135.98 857.96 136.80 L 857.21 137.90 C 852.14 138.12 847.06 138.01 841.99 137.92 C 841.60 135.88 843.95 136.02 845.13 135.10 C 846.86 133.59 846.53 131.07 846.67 129.02 C 846.66 117.75 846.67 106.49 846.66 95.22 C 844.13 95.34 841.39 94.72 839.03 95.88 C 836.41 97.65 835.94 101.04 835.02 103.83 C 834.18 103.83 832.50 103.83 831.66 103.83 C 831.66 99.94 831.65 96.05 831.67 92.17 Z" />
<path fill="#343a46" opacity="1.00" d=" M 914.36 111.38 C 918.26 105.12 927.53 103.43 933.64 107.33 C 938.11 110.49 938.68 116.49 938.83 121.51 C 931.77 121.50 924.71 121.49 917.65 121.51 C 917.72 125.63 918.07 130.71 921.92 133.16 C 926.65 135.98 932.66 133.86 936.18 130.06 C 936.88 130.84 937.54 131.68 938.14 132.55 C 934.81 135.69 930.79 138.63 925.99 138.53 C 920.60 138.97 914.75 136.22 912.94 130.86 C 910.76 124.61 910.78 117.13 914.36 111.38 M 920.51 110.53 C 918.60 112.80 918.18 115.83 917.82 118.66 C 922.70 118.66 927.58 118.69 932.47 118.64 C 932.18 115.68 931.97 112.49 930.16 110.01 C 927.79 106.98 922.69 107.57 920.51 110.53 Z" />
<path fill="#343a46" opacity="1.00" d=" M 961.04 106.04 C 963.50 105.00 966.22 105.32 968.83 105.45 C 968.83 108.09 968.83 110.73 968.82 113.37 C 967.54 113.33 966.29 113.32 965.04 113.26 C 964.13 111.68 963.09 109.70 960.97 109.79 C 956.72 110.26 953.74 114.83 954.19 118.94 C 954.37 123.81 953.82 128.73 954.55 133.57 C 954.90 135.63 957.32 135.90 958.79 136.89 L 958.02 137.90 C 953.66 138.11 949.28 138.01 944.93 137.95 C 943.66 136.30 946.33 136.00 947.14 135.12 C 948.83 133.65 948.22 131.04 948.42 129.05 C 948.21 122.72 948.78 116.33 948.10 110.03 C 947.86 107.64 943.55 108.72 944.24 106.27 C 947.42 105.34 950.92 105.84 954.23 105.47 C 954.11 107.56 954.04 109.65 953.97 111.74 C 956.04 109.55 958.11 107.11 961.04 106.04 Z" />
<path fill="#343a46" opacity="1.00" d=" M 976.15 110.14 C 980.30 105.01 988.29 103.86 993.97 106.97 C 998.90 109.94 999.55 116.29 999.74 121.49 C 992.67 121.52 985.61 121.48 978.55 121.51 C 978.59 125.63 978.96 130.67 982.78 133.15 C 987.50 135.98 993.53 133.88 997.04 130.06 C 997.75 130.84 998.44 131.66 999.09 132.52 C 995.73 135.64 991.75 138.65 986.92 138.53 C 981.54 138.98 975.68 136.25 973.85 130.91 C 971.51 124.20 971.64 115.94 976.15 110.14 M 981.50 110.40 C 979.51 112.67 979.11 115.76 978.64 118.62 C 983.55 118.71 988.46 118.68 993.38 118.63 C 993.02 115.49 992.87 111.99 990.62 109.52 C 988.09 107.09 983.61 107.72 981.50 110.40 Z" />
<path fill="#343a46" opacity="1.00" d=" M 1025.95 106.95 C 1031.39 104.41 1037.78 105.09 1043.45 106.53 C 1043.32 108.79 1043.29 111.06 1043.33 113.33 C 1042.56 113.33 1041.00 113.33 1040.23 113.33 C 1039.01 109.11 1034.40 106.84 1030.30 108.44 C 1026.92 109.31 1026.06 114.15 1028.73 116.27 C 1032.61 119.32 1037.92 120.02 1041.54 123.50 C 1045.65 127.49 1043.91 135.62 1038.39 137.43 C 1032.70 139.40 1026.50 138.46 1020.80 137.06 C 1020.78 134.67 1020.78 132.29 1020.80 129.90 C 1021.59 129.91 1023.18 129.91 1023.97 129.92 C 1025.04 134.61 1030.10 137.06 1034.56 135.42 C 1038.37 134.58 1039.22 129.00 1036.30 126.70 C 1032.25 123.59 1026.59 123.04 1023.13 119.08 C 1019.87 115.35 1021.50 108.96 1025.95 106.95 Z" />
<path fill="#343a46" opacity="1.00" d=" M 930.30 172.74 C 933.41 172.31 936.56 172.45 939.70 172.39 C 939.71 179.46 939.70 186.52 939.71 193.58 C 942.75 190.58 946.38 187.23 951.03 187.77 C 954.70 187.66 958.10 190.38 958.71 194.02 C 959.92 201.28 958.61 208.72 959.47 216.01 C 959.56 218.49 963.63 217.67 963.08 220.32 C 958.58 220.35 954.08 220.34 949.58 220.32 C 949.03 217.79 952.99 218.30 953.05 215.92 C 953.73 210.99 953.31 205.97 953.35 201.00 C 953.11 198.08 953.25 194.41 950.54 192.56 C 945.71 189.95 939.40 194.89 939.71 200.06 C 939.76 205.04 939.54 210.03 939.85 215.00 C 939.73 217.15 941.81 218.17 943.50 218.85 C 943.49 219.23 943.48 219.97 943.48 220.34 C 938.95 220.31 934.44 220.39 929.92 220.28 C 929.78 217.93 932.83 218.34 933.47 216.45 C 934.12 214.36 933.83 212.11 933.91 209.95 C 933.78 199.30 934.12 188.64 933.75 178.00 C 933.77 175.46 931.05 174.81 929.19 174.04 C 929.47 173.72 930.02 173.06 930.30 172.74 Z" />
<path fill="#343a46" opacity="1.00" d=" M 972.01 175.16 C 974.06 175.16 976.12 175.16 978.20 175.16 C 978.20 177.34 978.21 179.51 978.21 181.69 C 976.13 181.70 974.07 181.71 972.02 181.72 C 971.99 179.53 971.99 177.35 972.01 175.16 Z" />
<path fill="#343a46" opacity="1.00" d=" M 911.44 180.01 C 913.01 180.01 914.59 180.00 916.20 180.00 C 916.20 182.76 916.21 185.53 916.22 188.29 C 919.83 188.29 923.45 188.30 927.07 188.29 C 927.08 189.14 927.11 190.84 927.12 191.69 C 923.48 191.72 919.85 191.70 916.22 191.70 C 916.26 197.80 916.06 203.90 916.34 209.99 C 916.47 212.40 916.93 215.32 919.40 216.43 C 921.95 217.61 924.55 216.12 926.62 214.68 C 926.96 215.18 927.64 216.16 927.99 216.66 C 924.85 219.65 920.45 222.01 916.02 220.57 C 912.12 219.74 910.52 215.49 910.45 211.92 C 910.31 205.19 910.45 198.46 910.39 191.73 C 908.67 191.70 906.98 191.69 905.28 191.67 C 904.89 189.34 908.03 189.69 909.13 188.23 C 910.97 185.91 910.93 182.79 911.44 180.01 Z" />
<path fill="#343a46" opacity="1.00" d=" M 832.16 188.35 C 835.48 188.11 838.82 187.95 842.16 187.99 C 842.06 189.92 841.95 191.84 841.86 193.77 C 845.11 190.61 849.04 187.04 853.97 187.81 C 857.93 187.80 860.98 191.29 861.35 195.07 C 862.06 202.00 861.12 209.01 861.87 215.94 C 862.19 217.69 864.11 218.20 865.51 218.83 C 865.50 219.21 865.48 219.96 865.47 220.34 C 860.95 220.31 856.43 220.39 851.92 220.28 C 851.86 218.62 853.36 218.23 854.52 217.55 C 856.23 215.84 855.63 213.14 855.81 210.96 C 855.55 205.66 856.42 200.19 854.91 195.03 C 853.84 192.01 849.99 191.03 847.29 192.39 C 844.57 193.90 841.90 196.55 842.11 199.91 C 842.19 205.24 841.79 210.62 842.42 215.92 C 842.54 218.35 846.20 217.74 846.08 220.28 C 841.57 220.39 837.07 220.33 832.57 220.32 C 832.28 217.67 836.70 217.97 836.18 214.98 C 836.34 207.65 836.44 200.29 836.13 192.97 C 836.18 190.08 831.61 191.26 832.16 188.35 Z" />
<path fill="#343a46" opacity="1.00" d=" M 880.46 188.64 C 885.58 187.00 891.87 187.29 896.13 190.90 C 900.31 194.68 901.02 200.76 900.67 206.08 C 900.47 211.49 897.91 217.34 892.67 219.57 C 887.18 221.80 880.05 221.63 875.53 217.44 C 871.49 213.44 870.99 207.28 871.40 201.91 C 871.77 196.33 874.91 190.51 880.46 188.64 M 882.32 191.40 C 878.86 193.68 877.97 198.15 877.73 202.00 C 877.58 206.59 877.75 211.63 880.55 215.49 C 882.92 218.84 888.48 219.21 891.17 216.05 C 893.82 213.07 894.26 208.85 894.37 205.03 C 894.33 200.83 893.89 196.27 891.20 192.85 C 889.14 190.23 885.12 189.75 882.32 191.40 Z" />
<path fill="#343a46" opacity="1.00" d=" M 968.08 188.32 C 971.41 188.13 974.74 187.95 978.09 187.99 C 978.15 196.99 978.00 205.99 978.16 214.99 C 977.99 217.32 980.21 218.26 982.04 218.90 C 981.91 219.26 981.65 219.98 981.51 220.34 C 977.18 220.37 972.85 220.31 968.53 220.33 C 968.52 219.97 968.50 219.23 968.49 218.86 C 970.14 218.17 972.15 217.20 972.05 215.07 C 972.22 207.74 972.28 200.38 972.02 193.05 C 972.15 190.08 967.42 191.26 968.08 188.32 Z" />
<path fill="#343a46" opacity="1.00" d=" M 987.03 188.35 C 990.39 188.13 993.75 187.95 997.13 187.99 C 996.99 189.91 996.93 191.84 996.83 193.76 C 999.92 190.88 1003.39 187.45 1007.97 187.76 C 1011.97 187.44 1015.70 190.47 1016.20 194.45 C 1017.21 201.57 1016.07 208.82 1016.83 215.96 C 1016.91 218.41 1021.06 217.69 1020.39 220.33 C 1015.91 220.33 1011.44 220.37 1006.97 220.30 C 1006.76 217.77 1010.53 218.20 1010.51 215.67 C 1010.99 209.50 1010.98 203.23 1010.40 197.07 C 1010.28 193.87 1007.20 191.12 1003.97 191.89 C 1000.38 192.70 996.90 196.02 997.10 199.93 C 997.22 205.28 996.78 210.67 997.39 216.00 C 997.67 218.34 1001.15 217.79 1001.09 220.27 C 996.59 220.39 992.09 220.32 987.60 220.33 C 986.96 218.08 989.96 218.34 990.66 216.80 C 991.68 213.97 991.18 210.89 991.29 207.96 C 991.16 202.99 991.56 198.00 991.10 193.05 C 991.26 190.02 986.53 191.28 987.03 188.35 Z" />
<path fill="#343a46" opacity="1.00" d=" M 1031.02 189.98 C 1034.18 187.79 1038.25 187.41 1041.98 187.91 C 1046.65 188.62 1051.39 188.17 1056.10 188.29 C 1056.07 189.44 1056.07 190.58 1056.09 191.73 C 1053.95 191.65 1051.81 191.58 1049.69 191.49 C 1053.08 196.34 1052.70 204.15 1047.63 207.72 C 1043.62 210.33 1038.46 210.42 1033.94 209.34 C 1032.40 210.69 1030.68 212.80 1032.01 214.91 C 1033.59 216.44 1035.97 215.85 1037.97 216.02 C 1042.48 216.19 1047.41 215.27 1051.56 217.51 C 1056.33 220.31 1056.08 227.76 1052.33 231.32 C 1048.03 235.44 1041.64 235.64 1036.06 235.23 C 1031.84 234.97 1026.23 233.78 1025.01 229.04 C 1023.95 225.30 1026.65 221.92 1029.91 220.49 C 1028.56 219.31 1026.88 218.07 1026.89 216.10 C 1026.40 212.74 1029.13 210.29 1031.49 208.41 C 1025.40 204.44 1025.05 194.20 1031.02 189.98 M 1037.40 190.58 C 1030.10 193.05 1031.47 207.90 1040.02 207.22 C 1045.34 206.86 1046.51 200.24 1045.49 196.03 C 1045.08 192.22 1041.19 189.24 1037.40 190.58 M 1033.29 221.22 C 1030.90 223.02 1029.45 226.29 1030.73 229.18 C 1032.08 231.76 1035.21 232.40 1037.88 232.60 C 1041.32 232.84 1045.31 232.64 1047.95 230.08 C 1050.61 227.61 1050.00 221.93 1045.94 221.37 C 1041.76 220.93 1037.47 220.97 1033.29 221.22 Z" />
<path fill="#343a46" opacity="1.00" d=" M 830.92 256.16 C 833.71 253.79 838.25 255.24 841.77 254.88 C 841.63 261.90 841.74 268.92 841.71 275.94 C 844.77 272.97 848.44 269.64 853.06 270.16 C 856.58 270.10 859.90 272.59 860.63 276.07 C 862.03 283.49 860.52 291.14 861.53 298.59 C 861.80 300.90 865.70 300.18 865.08 302.83 C 860.71 302.79 856.34 302.94 851.99 302.78 C 851.82 302.46 851.48 301.82 851.31 301.50 C 852.84 300.78 854.85 300.01 855.11 298.07 C 855.66 293.09 855.36 288.05 855.32 283.05 C 855.10 280.32 855.19 276.98 852.80 275.14 C 847.80 272.01 841.02 277.56 841.69 283.01 C 841.94 288.28 841.20 293.65 842.16 298.86 C 842.62 300.80 846.21 300.45 845.59 302.63 C 841.09 303.09 836.54 302.74 832.03 302.79 C 831.61 300.14 835.97 300.61 835.73 297.83 C 836.14 287.24 835.77 276.62 835.91 266.02 C 835.81 263.61 836.19 261.07 835.27 258.79 C 834.30 257.29 832.33 257.04 830.92 256.16 Z" />
<path fill="#343a46" opacity="1.00" d=" M 873.85 275.89 C 877.85 269.84 886.92 268.34 892.92 272.14 C 897.38 275.24 897.94 281.23 898.15 286.20 C 891.09 286.22 884.02 286.20 876.96 286.21 C 876.97 290.54 877.44 295.99 881.74 298.29 C 886.52 300.56 892.04 298.47 895.53 294.87 C 896.01 295.43 896.97 296.54 897.45 297.10 C 894.26 300.65 889.89 303.51 884.96 303.34 C 879.70 303.67 874.10 300.93 872.27 295.77 C 870.02 289.39 870.06 281.70 873.85 275.89 M 880.05 275.01 C 878.00 277.30 877.50 280.45 877.08 283.38 C 881.98 283.43 886.87 283.39 891.78 283.40 C 891.39 280.42 891.33 277.09 889.32 274.66 C 887.01 271.89 882.28 272.38 880.05 275.01 Z" />
<path fill="#343a46" opacity="1.00" d=" M 920.06 270.95 C 922.57 269.79 925.40 270.21 928.09 270.25 C 928.09 272.87 928.10 275.49 928.09 278.11 C 926.83 278.08 925.58 278.06 924.35 278.05 C 923.45 276.37 922.21 274.36 920.00 274.58 C 916.81 275.08 914.29 278.01 913.67 281.07 C 913.31 285.70 913.54 290.36 913.54 295.01 C 913.64 296.73 913.43 298.86 914.92 300.10 C 916.05 300.88 918.41 300.84 917.83 302.78 C 913.21 302.87 908.60 302.87 904.00 302.77 C 903.79 300.18 908.07 300.28 907.56 297.34 C 907.64 289.90 907.94 282.40 907.39 274.99 C 907.33 272.38 902.61 273.63 903.65 270.72 C 906.96 270.53 910.27 270.38 913.60 270.38 C 913.43 272.44 913.29 274.51 913.15 276.58 C 915.27 274.51 917.22 272.08 920.06 270.95 Z" />
<path fill="#343a46" opacity="1.00" d=" M 935.68 274.69 C 939.85 269.76 947.62 268.79 953.20 271.72 C 958.15 274.65 958.84 281.01 959.06 286.20 C 951.96 286.22 944.88 286.19 937.79 286.21 C 937.92 290.55 938.30 296.07 942.70 298.32 C 947.53 300.63 952.89 298.30 956.53 294.91 C 956.98 295.46 957.88 296.54 958.33 297.08 C 955.02 300.88 950.27 303.73 945.07 303.34 C 939.78 303.51 934.43 300.29 932.90 295.09 C 930.88 288.41 931.01 280.27 935.68 274.69 M 940.97 274.99 C 938.91 277.28 938.37 280.42 937.97 283.36 C 942.85 283.45 947.73 283.37 952.61 283.42 C 952.32 280.21 952.16 276.55 949.74 274.14 C 947.23 272.00 943.07 272.52 940.97 274.99 Z" />
<path fill="#343a46" opacity="1.00" d=" M 965.36 295.00 C 967.63 294.90 969.90 294.85 972.19 294.93 C 972.21 297.56 972.21 300.19 972.21 302.82 C 969.93 302.84 967.66 302.84 965.40 302.83 C 965.39 300.21 965.41 297.60 965.36 295.00 Z" />
<path fill="#343a46" opacity="1.00" d=" M 979.40 294.93 C 981.70 294.90 984.00 294.89 986.32 294.91 C 986.33 297.54 986.34 300.18 986.34 302.82 C 984.02 302.84 981.71 302.84 979.40 302.83 C 979.39 300.19 979.39 297.56 979.40 294.93 Z" />
<path fill="#343a46" opacity="1.00" d=" M 993.50 302.82 C 993.47 300.18 993.48 297.53 993.54 294.89 C 995.79 294.90 998.05 294.90 1000.31 294.91 C 1000.33 297.55 1000.35 300.18 1000.34 302.82 C 998.05 302.84 995.77 302.83 993.50 302.82 Z" />
</g>
<g id="#ba624aff">
<path fill="#ba624a" opacity="1.00" d=" M 548.87 140.80 C 552.80 133.90 563.83 134.92 567.22 141.75 C 568.63 146.14 565.98 150.42 564.33 154.34 C 570.81 157.24 578.13 157.40 584.97 159.12 C 593.28 160.97 601.10 164.55 608.64 168.41 C 636.70 183.26 657.59 210.86 664.18 241.92 C 667.84 260.98 665.55 280.46 665.64 299.70 C 654.84 299.09 643.98 298.68 633.18 299.30 C 632.20 299.39 631.23 299.47 630.27 299.54 C 628.26 298.70 626.33 297.68 624.42 296.67 C 622.86 277.43 626.26 257.74 621.21 238.82 C 615.42 214.20 600.92 191.55 580.27 176.79 C 574.07 171.99 567.21 168.15 559.98 165.14 C 554.87 162.98 549.69 160.70 545.58 156.87 C 547.83 156.83 550.08 156.88 552.34 156.90 C 550.20 151.94 544.34 146.14 548.87 140.80 Z" />
<path fill="#ba624a" opacity="1.00" d=" M 534.79 545.84 C 538.99 541.43 541.31 535.73 543.23 530.05 C 544.01 533.19 545.02 536.38 547.16 538.88 C 553.65 546.99 561.12 554.26 567.67 562.33 C 570.52 565.65 573.07 569.44 577.06 571.52 C 589.55 560.52 598.35 545.99 610.76 534.89 C 613.48 538.72 616.24 542.51 619.19 546.18 C 621.20 548.82 622.68 551.81 624.36 554.67 C 628.14 561.16 632.43 567.37 635.96 574.02 C 637.34 576.45 637.49 579.60 635.94 582.01 C 633.49 585.85 629.64 588.49 626.82 592.04 C 619.75 600.25 613.34 609.01 606.29 617.23 C 605.10 618.31 603.56 620.84 601.82 619.16 C 592.68 610.74 588.31 598.75 581.34 588.72 C 579.65 586.54 578.19 583.78 575.37 582.96 C 567.72 594.26 561.78 607.15 551.19 616.13 C 549.08 618.26 546.01 616.49 544.42 614.64 C 537.39 606.78 530.57 598.72 524.13 590.37 C 521.53 586.63 518.16 583.29 516.43 579.03 C 517.88 573.02 521.46 567.79 524.60 562.55 C 528.16 557.08 531.44 551.44 534.79 545.84 Z" />
</g>
<g id="#cb7a5dff">
<path fill="#cb7a5d" opacity="1.00" d=" M 510.24 167.15 C 521.23 161.51 533.09 157.10 545.58 156.87 C 549.69 160.70 554.87 162.98 559.98 165.14 C 567.21 168.15 574.07 171.99 580.27 176.79 C 600.92 191.55 615.42 214.20 621.21 238.82 C 626.26 257.74 622.86 277.43 624.42 296.67 C 626.33 297.68 628.26 298.70 630.27 299.54 L 630.36 301.19 C 627.06 301.24 623.78 301.46 620.49 301.35 C 614.09 299.88 607.51 299.77 600.97 299.81 C 555.99 299.93 511.00 299.73 466.02 299.92 C 461.45 299.94 456.83 299.86 452.44 298.49 C 450.61 285.91 453.65 272.95 450.17 260.52 C 450.53 255.68 450.15 250.83 450.46 245.99 C 450.92 236.93 454.92 228.61 458.41 220.40 C 469.19 197.67 487.02 177.52 510.24 167.15 Z" />
<path fill="#cb7a5d" opacity="1.00" d=" M 486.13 433.25 C 497.86 430.94 510.12 429.58 521.92 432.15 C 526.73 432.88 527.10 439.41 524.56 442.62 C 522.71 445.54 518.91 444.95 515.96 445.16 C 507.35 445.55 498.61 444.71 490.13 446.54 C 483.31 447.92 477.47 451.97 471.98 456.04 C 468.24 458.82 465.41 463.15 465.92 467.98 C 465.05 467.04 464.14 466.15 463.25 465.26 C 451.17 474.42 442.51 487.66 429.09 495.12 C 416.38 502.46 401.12 503.00 386.85 501.75 C 379.52 501.14 372.31 494.73 372.84 486.99 C 372.98 474.99 372.33 462.97 373.23 451.00 C 373.20 446.89 377.49 444.60 381.12 444.43 C 393.10 443.65 405.32 443.12 417.07 446.02 C 418.53 459.03 417.23 472.21 419.06 485.18 C 428.08 481.62 434.78 474.24 441.48 467.52 C 447.17 461.56 453.95 456.32 457.42 448.63 C 466.83 443.26 475.20 435.41 486.13 433.25 Z" />
<path fill="#cb7a5d" opacity="1.00" d=" M 482.91 555.80 C 498.86 547.89 517.06 544.36 534.79 545.84 C 531.44 551.44 528.16 557.08 524.60 562.55 C 521.46 567.79 517.88 573.02 516.43 579.03 C 518.16 583.29 521.53 586.63 524.13 590.37 C 518.46 598.58 510.50 606.24 509.48 616.67 C 507.38 630.66 505.95 644.86 507.22 659.00 C 507.70 663.34 509.02 667.60 508.78 672.02 C 508.40 679.38 506.64 686.60 506.08 693.95 C 505.69 722.86 506.43 751.81 505.73 780.72 C 497.20 781.93 488.55 781.68 479.96 781.84 C 463.00 780.96 446.01 780.88 429.03 780.87 C 424.09 780.75 419.18 782.05 414.25 781.57 C 411.14 779.55 410.06 775.48 409.99 771.96 C 409.93 751.97 410.18 731.98 410.07 711.99 C 410.14 705.58 408.85 699.27 408.70 692.88 C 411.62 680.80 410.76 668.30 410.79 656.00 C 410.76 649.17 412.20 642.45 414.04 635.91 C 423.76 600.94 449.15 569.89 482.91 555.80 Z" />
<path fill="#cb7a5d" opacity="1.00" d=" M 619.19 546.18 C 638.72 543.59 658.66 544.65 678.02 548.08 C 686.82 549.43 694.58 553.98 702.69 557.35 C 730.58 569.27 751.45 593.84 763.63 621.13 C 767.44 630.28 768.38 640.67 774.27 648.90 C 772.87 654.15 771.83 659.53 771.93 665.00 C 772.03 684.67 772.00 704.34 771.99 724.02 C 771.92 733.29 772.83 742.70 770.67 751.83 C 769.30 761.62 770.05 771.58 770.21 781.43 C 757.15 782.11 744.02 781.78 730.95 781.58 C 724.32 780.75 717.65 781.21 711.00 781.12 C 703.00 781.26 694.99 780.92 687.02 781.68 C 672.42 782.33 657.83 781.07 643.24 780.75 C 641.63 766.89 642.16 752.93 641.99 739.01 C 642.01 712.00 642.12 685.00 642.00 658.00 C 641.80 645.02 643.60 631.57 638.83 619.15 C 636.21 609.47 628.55 602.02 626.82 592.04 C 629.64 588.49 633.49 585.85 635.94 582.01 C 637.49 579.60 637.34 576.45 635.96 574.02 C 632.43 567.37 628.14 561.16 624.36 554.67 C 622.68 551.81 621.20 548.82 619.19 546.18 Z" />
</g>
<g id="#777777ff">
<path fill="#777777" opacity="1.00" d=" M 328.49 242.59 C 339.17 240.27 350.86 243.75 358.72 251.30 C 364.98 257.09 367.81 265.63 368.56 273.93 C 368.65 281.38 366.31 288.91 361.75 294.85 C 356.99 300.51 360.81 309.17 355.69 314.69 C 351.80 319.12 347.57 324.92 341.02 324.76 C 334.75 325.51 328.48 322.17 325.11 316.94 C 322.98 314.04 322.22 310.48 320.81 307.25 C 317.90 301.38 311.25 298.70 308.08 293.02 C 303.71 285.50 301.60 276.33 303.75 267.77 C 305.15 262.46 307.22 257.12 311.08 253.10 C 315.72 248.03 321.87 244.38 328.49 242.59 Z" />
<path fill="#777777" opacity="1.00" d=" M 385.45 318.63 C 392.14 316.86 399.01 318.97 405.00 321.96 C 412.55 326.61 416.81 335.33 417.68 343.96 C 418.02 351.87 413.05 358.61 408.75 364.80 C 405.04 369.67 403.13 376.31 397.29 379.22 C 390.22 383.38 380.78 381.58 375.10 375.90 C 371.75 371.67 370.58 366.25 368.79 361.27 C 367.17 355.81 364.62 350.54 364.19 344.79 C 364.07 332.65 373.18 320.51 385.45 318.63 Z" />
<path fill="#777777" opacity="1.00" d=" M 365.39 386.48 C 374.56 383.76 384.57 392.61 383.59 401.97 C 384.00 412.22 370.68 418.36 362.29 413.70 C 357.87 410.62 353.85 405.83 354.44 400.09 C 355.22 394.12 359.19 387.83 365.39 386.48 Z" />
</g>
<g id="#d88068ff">
<path fill="#d88068" opacity="1.00" d=" M 450.17 260.52 C 453.65 272.95 450.61 285.91 452.44 298.49 C 456.83 299.86 461.45 299.94 466.02 299.92 C 511.00 299.73 555.99 299.93 600.97 299.81 C 607.51 299.77 614.09 299.88 620.49 301.35 C 612.44 310.33 600.59 314.04 590.37 319.82 C 590.43 320.62 590.55 322.21 590.60 323.01 C 590.40 321.94 590.20 320.87 590.00 319.80 C 579.70 322.50 569.82 326.52 559.71 329.82 C 558.70 330.07 557.83 330.57 557.10 331.30 C 546.49 331.63 536.46 335.94 525.94 337.19 C 515.80 338.81 505.00 337.25 495.45 341.77 C 490.70 342.47 485.88 342.57 481.09 342.47 C 481.10 341.87 481.11 340.67 481.11 340.07 C 472.05 338.87 462.87 340.06 453.80 339.20 C 445.42 337.60 435.85 337.00 429.62 330.41 C 426.34 327.44 425.95 322.14 428.51 318.60 C 433.88 311.10 441.54 305.65 449.20 300.69 C 450.52 287.34 449.15 273.89 450.17 260.52 Z" />
</g>
<g id="#79523bff">
<path fill="#79523b" opacity="1.00" d=" M 630.27 299.54 C 631.23 299.47 632.20 299.39 633.18 299.30 C 633.20 299.76 633.24 300.68 633.26 301.15 C 633.06 338.44 632.60 375.75 633.49 413.04 C 633.57 414.61 633.03 416.09 632.48 417.53 C 630.90 414.61 630.13 411.32 630.23 408.00 C 630.44 372.40 630.26 336.79 630.36 301.19 L 630.27 299.54 Z" />
</g>
<g id="#f8c09dff">
<path fill="#f8c09d" opacity="1.00" d=" M 620.49 301.35 C 623.78 301.46 627.06 301.24 630.36 301.19 C 630.26 336.79 630.44 372.40 630.23 408.00 C 630.13 411.32 630.90 414.61 632.48 417.53 C 637.08 425.30 651.43 425.20 654.65 416.17 C 657.15 415.20 659.65 414.24 662.12 413.18 C 664.76 431.37 659.11 449.73 650.63 465.69 C 645.29 475.28 639.44 484.86 631.12 492.19 C 624.99 497.86 618.11 502.60 611.19 507.24 C 610.98 516.45 611.36 525.69 610.76 534.89 C 598.35 545.99 589.55 560.52 577.06 571.52 C 573.07 569.44 570.52 565.65 567.67 562.33 C 561.12 554.26 553.65 546.99 547.16 538.88 C 545.02 536.38 544.01 533.19 543.23 530.05 C 543.31 526.94 543.22 523.84 543.33 520.73 C 537.28 518.70 530.92 517.94 524.78 516.26 C 517.12 514.40 510.13 510.58 503.45 506.50 C 488.14 496.89 474.87 483.73 465.92 467.98 C 465.41 463.15 468.24 458.82 471.98 456.04 C 477.47 451.97 483.31 447.92 490.13 446.54 C 498.61 444.71 507.35 445.55 515.96 445.16 C 518.91 444.95 522.71 445.54 524.56 442.62 C 527.10 439.41 526.73 432.88 521.92 432.15 C 510.12 429.58 497.86 430.94 486.13 433.25 C 475.20 435.41 466.83 443.26 457.42 448.63 C 453.11 435.58 452.42 421.66 453.16 408.03 C 453.29 385.09 452.24 362.11 453.80 339.20 C 462.87 340.06 472.05 338.87 481.11 340.07 C 481.11 340.67 481.10 341.87 481.09 342.47 C 479.05 347.52 477.60 353.53 480.35 358.61 C 481.26 360.81 483.85 361.36 485.95 361.73 C 489.59 362.08 493.25 361.34 496.78 360.48 C 499.64 354.66 498.95 347.24 495.45 341.77 C 505.00 337.25 515.80 338.81 525.94 337.19 C 536.46 335.94 546.49 331.63 557.10 331.30 C 564.31 335.67 572.97 334.63 581.00 334.46 C 584.85 334.38 588.31 332.47 591.74 330.94 C 591.36 328.30 590.98 325.65 590.60 323.01 C 590.55 322.21 590.43 320.62 590.37 319.82 C 600.59 314.04 612.44 310.33 620.49 301.35 M 573.36 341.44 C 570.93 342.37 568.50 343.86 567.51 346.39 C 565.64 351.27 567.38 356.81 570.21 360.95 C 574.20 362.05 578.80 362.53 582.68 360.76 C 586.83 358.31 588.97 352.65 586.80 348.19 C 584.73 343.21 578.77 338.98 573.36 341.44 M 522.22 356.36 C 516.62 358.32 510.65 361.85 508.96 367.94 C 506.39 377.44 507.31 387.37 507.55 397.08 C 507.79 402.88 510.26 408.60 514.68 412.43 C 518.14 415.96 523.50 415.93 528.09 415.92 C 535.61 415.67 540.91 409.15 543.72 402.78 C 546.33 397.20 545.46 390.93 545.56 384.97 C 545.39 380.64 546.01 376.21 544.85 371.97 C 543.56 366.77 540.07 362.33 535.88 359.11 C 532.08 356.17 526.86 354.66 522.22 356.36 Z" />
<path fill="#f8c09d" opacity="1.00" d=" M 120.08 581.67 C 127.49 577.93 136.00 577.26 144.17 577.29 C 159.83 577.33 172.97 588.09 181.97 600.02 C 190.46 611.37 190.48 626.67 187.44 639.94 C 186.90 642.92 184.86 646.76 187.72 649.18 C 190.16 650.96 192.24 653.25 194.77 654.87 C 194.37 654.87 193.55 654.85 193.15 654.84 C 192.57 656.41 192.30 658.11 191.43 659.57 C 185.04 667.43 177.01 673.74 169.76 680.73 C 166.53 677.60 163.39 674.37 160.17 671.23 C 149.10 673.67 137.32 675.14 126.25 671.88 C 113.67 667.97 103.42 658.34 97.19 646.91 C 91.81 635.95 91.74 623.07 94.41 611.36 C 97.92 598.12 108.80 588.55 120.08 581.67 Z" />
</g>
<g id="#4d2a17ff">
<path fill="#4d2a17" opacity="1.00" d=" M 633.26 301.15 C 643.32 301.01 653.43 300.41 663.47 301.58 C 663.64 311.40 663.11 321.21 663.33 331.03 C 663.36 338.57 664.43 346.32 661.85 353.60 C 659.35 354.28 656.96 355.32 654.53 356.17 C 654.20 376.17 654.18 396.18 654.65 416.17 C 651.43 425.20 637.08 425.30 632.48 417.53 C 633.03 416.09 633.57 414.61 633.49 413.04 C 632.60 375.75 633.06 338.44 633.26 301.15 Z" />
</g>
<g id="#4a2915ff">
<path fill="#4a2915" opacity="1.00" d=" M 559.71 329.82 C 569.82 326.52 579.70 322.50 590.00 319.80 C 590.20 320.87 590.40 321.94 590.60 323.01 C 590.98 325.65 591.36 328.30 591.74 330.94 C 588.31 332.47 584.85 334.38 581.00 334.46 C 572.97 334.63 564.31 335.67 557.10 331.30 C 557.83 330.57 558.70 330.07 559.71 329.82 Z" />
</g>
<g id="#262625ff">
<path fill="#262625" opacity="1.00" d=" M 573.36 341.44 C 578.77 338.98 584.73 343.21 586.80 348.19 C 588.97 352.65 586.83 358.31 582.68 360.76 C 578.80 362.53 574.20 362.05 570.21 360.95 C 567.38 356.81 565.64 351.27 567.51 346.39 C 568.50 343.86 570.93 342.37 573.36 341.44 Z" />
</g>
<g id="#262626ff">
<path fill="#262626" opacity="1.00" d=" M 481.09 342.47 C 485.88 342.57 490.70 342.47 495.45 341.77 C 498.95 347.24 499.64 354.66 496.78 360.48 C 493.25 361.34 489.59 362.08 485.95 361.73 C 483.85 361.36 481.26 360.81 480.35 358.61 C 477.60 353.53 479.05 347.52 481.09 342.47 Z" />
</g>
<g id="#ee8379ff">
<path fill="#ee8379" opacity="1.00" d=" M 661.85 353.60 C 664.92 352.78 668.08 352.25 671.12 351.25 C 674.88 355.07 679.63 358.45 681.28 363.82 C 684.61 374.23 681.57 385.47 677.08 395.05 C 673.73 402.33 666.97 407.03 662.12 413.18 C 659.65 414.24 657.15 415.20 654.65 416.17 C 654.18 396.18 654.20 376.17 654.53 356.17 C 656.96 355.32 659.35 354.28 661.85 353.60 Z" />
<path fill="#ee8379" opacity="1.00" d=" M 522.22 356.36 C 526.86 354.66 532.08 356.17 535.88 359.11 C 540.07 362.33 543.56 366.77 544.85 371.97 C 546.01 376.21 545.39 380.64 545.56 384.97 C 545.46 390.93 546.33 397.20 543.72 402.78 C 540.91 409.15 535.61 415.67 528.09 415.92 C 523.50 415.93 518.14 415.96 514.68 412.43 C 510.26 408.60 507.79 402.88 507.55 397.08 C 507.31 387.37 506.39 377.44 508.96 367.94 C 510.65 361.85 516.62 358.32 522.22 356.36 Z" />
</g>
<g id="#777776ff">
<path fill="#777776" opacity="1.00" d=" M 379.42 418.48 C 383.18 417.98 386.75 420.27 388.91 423.20 C 389.21 428.31 382.83 434.76 377.87 431.15 C 373.25 428.13 374.40 420.41 379.42 418.48 Z" />
</g>
<g id="#767776ff">
<path fill="#767776" opacity="1.00" d=" M 109.37 446.57 C 132.96 441.70 158.76 453.34 170.94 474.04 C 177.82 485.68 181.11 499.74 178.68 513.15 C 175.70 531.33 163.70 547.77 147.31 556.17 C 141.18 559.53 134.30 561.12 127.49 562.44 C 117.96 564.23 108.27 561.76 99.31 558.57 C 87.99 555.01 78.55 546.82 72.08 537.01 C 65.59 526.58 60.89 514.42 61.45 501.96 C 63.36 475.95 83.13 451.05 109.37 446.57 M 111.43 457.53 C 97.41 460.25 85.00 469.62 78.13 482.08 C 72.68 491.80 71.07 503.55 73.37 514.43 C 77.00 529.49 88.28 542.59 102.71 548.29 C 110.87 551.45 119.72 554.35 128.54 552.39 C 143.34 549.44 155.15 538.33 162.85 525.82 C 168.38 517.32 168.81 506.70 167.77 496.91 C 167.03 486.34 161.06 476.73 153.33 469.75 C 142.13 459.72 126.31 454.64 111.43 457.53 Z" />
</g>
<g id="#d9e8ebff">
<path fill="#d9e8eb" opacity="1.00" d=" M 111.43 457.53 C 126.31 454.64 142.13 459.72 153.33 469.75 C 161.06 476.73 167.03 486.34 167.77 496.91 C 168.81 506.70 168.38 517.32 162.85 525.82 C 155.15 538.33 143.34 549.44 128.54 552.39 C 119.72 554.35 110.87 551.45 102.71 548.29 C 88.28 542.59 77.00 529.49 73.37 514.43 C 71.07 503.55 72.68 491.80 78.13 482.08 C 85.00 469.62 97.41 460.25 111.43 457.53 M 94.20 474.30 C 82.70 475.64 80.85 494.58 91.53 498.45 C 95.09 499.64 99.10 499.41 102.73 498.63 C 111.51 495.72 112.30 482.70 106.40 476.67 C 102.78 474.54 98.36 473.47 94.20 474.30 Z" />
</g>
<g id="#fefffeff">
<path fill="#fefffe" opacity="1.00" d=" M 94.20 474.30 C 98.36 473.47 102.78 474.54 106.40 476.67 C 112.30 482.70 111.51 495.72 102.73 498.63 C 99.10 499.41 95.09 499.64 91.53 498.45 C 80.85 494.58 82.70 475.64 94.20 474.30 Z" />
</g>
<g id="#ce7b5dff">
<path fill="#ce7b5d" opacity="1.00" d=" M 118.81 572.89 C 126.78 570.83 135.06 570.58 143.23 570.15 C 143.57 572.53 143.95 574.89 144.17 577.29 C 136.00 577.26 127.49 577.93 120.08 581.67 C 119.32 578.80 118.90 575.85 118.81 572.89 Z" />
</g>
<g id="#c06e58ff">
<path fill="#c06e58" opacity="1.00" d=" M 575.37 582.96 C 578.19 583.78 579.65 586.54 581.34 588.72 C 588.31 598.75 592.68 610.74 601.82 619.16 C 603.56 620.84 605.10 618.31 606.29 617.23 C 613.34 609.01 619.75 600.25 626.82 592.04 C 628.55 602.02 636.21 609.47 638.83 619.15 C 643.60 631.57 641.80 645.02 642.00 658.00 C 642.12 685.00 642.01 712.00 641.99 739.01 C 642.16 752.93 641.63 766.89 643.24 780.75 C 657.83 781.07 672.42 782.33 687.02 781.68 C 694.99 780.92 703.00 781.26 711.00 781.12 C 717.65 781.21 724.32 780.75 730.95 781.58 C 727.70 791.43 728.85 801.87 729.02 812.04 C 729.02 851.47 728.97 890.91 729.12 930.34 C 646.83 975.13 551.20 994.45 457.94 986.24 C 456.45 986.10 454.95 985.99 453.47 985.92 L 453.47 985.69 C 452.35 918.05 453.39 850.38 452.80 782.73 C 439.85 782.35 426.91 782.71 413.97 782.51 C 408.02 789.40 403.23 797.32 396.41 803.43 C 391.67 807.42 386.79 811.33 381.36 814.36 C 354.10 829.92 318.31 829.36 291.93 812.16 C 283.77 806.80 277.08 799.61 270.23 792.75 C 255.08 777.56 239.92 762.39 224.75 747.22 C 204.89 727.06 184.37 707.54 164.99 686.92 C 166.44 684.75 168.06 682.70 169.76 680.73 C 177.01 673.74 185.04 667.43 191.43 659.57 C 192.30 658.11 192.57 656.41 193.15 654.84 C 193.55 654.85 194.37 654.87 194.77 654.87 C 195.28 654.87 196.30 654.86 196.81 654.86 C 198.65 653.51 200.40 652.06 202.13 650.59 C 237.90 686.24 273.54 722.03 309.29 757.70 C 313.35 761.66 317.08 766.21 322.29 768.74 C 333.58 774.41 347.95 773.51 358.39 766.35 C 364.90 761.36 368.77 753.91 373.18 747.17 C 385.14 729.15 395.90 710.34 408.70 692.88 C 408.85 699.27 410.14 705.58 410.07 711.99 C 410.18 731.98 409.93 751.97 409.99 771.96 C 410.06 775.48 411.14 779.55 414.25 781.57 C 419.18 782.05 424.09 780.75 429.03 780.87 C 446.01 780.88 463.00 780.96 479.96 781.84 C 488.55 781.68 497.20 781.93 505.73 780.72 C 506.43 751.81 505.69 722.86 506.08 693.95 C 506.64 686.60 508.40 679.38 508.78 672.02 C 509.02 667.60 507.70 663.34 507.22 659.00 C 505.95 644.86 507.38 630.66 509.48 616.67 C 510.50 606.24 518.46 598.58 524.13 590.37 C 530.57 598.72 537.39 606.78 544.42 614.64 C 546.01 616.49 549.08 618.26 551.19 616.13 C 561.78 607.15 567.72 594.26 575.37 582.96 M 572.37 623.48 C 565.54 624.18 559.05 630.79 560.59 637.95 C 562.26 644.20 568.72 648.40 574.94 648.79 C 580.57 646.45 587.49 642.78 587.53 635.76 C 587.27 628.47 579.43 622.68 572.37 623.48 M 574.27 692.48 C 570.66 693.40 567.53 695.55 564.33 697.37 C 562.77 702.72 561.99 708.97 565.10 713.92 C 571.58 718.99 583.11 717.81 586.59 709.68 C 590.29 701.58 582.00 693.29 574.27 692.48 M 569.52 769.96 C 562.37 773.20 561.15 783.54 565.25 789.64 C 567.92 793.85 573.51 794.59 578.03 793.74 C 582.78 792.26 585.99 787.67 587.34 783.07 C 587.30 778.09 584.05 773.74 580.97 770.10 C 577.18 769.65 573.31 769.58 569.52 769.96 M 569.34 840.55 C 563.72 842.15 562.43 849.04 563.01 854.09 C 563.19 859.46 568.18 863.15 573.06 864.21 C 575.95 865.31 578.59 863.15 580.99 861.84 C 585.02 859.45 588.38 854.91 587.31 850.02 C 585.74 842.30 576.59 837.70 569.34 840.55 M 570.30 907.36 C 560.48 910.53 560.61 926.11 569.35 930.50 C 573.85 932.38 579.65 931.91 582.97 928.01 C 585.71 924.84 588.58 920.37 586.89 916.07 C 584.80 909.44 577.01 904.96 570.30 907.36 Z" />
<path fill="#c06e58" opacity="1.00" d=" M 774.27 648.90 C 791.22 674.81 806.51 701.74 822.90 728.00 C 830.14 739.80 837.75 751.55 842.52 764.63 C 844.34 769.61 847.04 774.24 848.42 779.39 C 853.82 797.64 852.41 816.91 852.05 835.67 C 835.74 853.23 817.98 869.46 799.15 884.28 C 798.71 862.18 799.00 840.06 799.03 817.96 C 800.37 802.43 795.92 786.93 788.66 773.32 C 784.01 764.78 778.99 756.32 772.74 748.87 C 771.51 759.41 773.67 770.16 771.84 780.68 C 771.43 780.87 770.62 781.24 770.21 781.43 C 770.05 771.58 769.30 761.62 770.67 751.83 C 772.83 742.70 771.92 733.29 771.99 724.02 C 772.00 704.34 772.03 684.67 771.93 665.00 C 771.83 659.53 772.87 654.15 774.27 648.90 Z" />
</g>
</svg>
